<?xml version="1.0" encoding="UTF-8"?>
<!DOCTYPE svg PUBLIC "-//W3C//DTD SVG 1.1//EN" "http://www.w3.org/Graphics/SVG/1.1/DTD/svg11.dtd">
<!-- Creator: CorelDRAW 2020 (64-Bit) -->
<svg xmlns="http://www.w3.org/2000/svg" xml:space="preserve" width="297mm" height="210mm" version="1.1" style="shape-rendering:geometricPrecision; text-rendering:geometricPrecision; image-rendering:optimizeQuality; fill-rule:evenodd; clip-rule:evenodd"
viewBox="0 0 29700 21000"
 xmlns:xlink="http://www.w3.org/1999/xlink"
 xmlns:xodm="http://www.corel.com/coreldraw/odm/2003">
 <defs>
  <style type="text/css">
   <![CDATA[
    .str0 {stroke:#9D9E9E;stroke-width:20;stroke-miterlimit:22.9256}
    .fil0 {fill:none}
    .fil3 {fill:#FEFEFE}
    .fil2 {fill:#2B2A29}
    .fil10 {fill:#57C0CE}
    .fil1 {fill:#203C5D}
    .fil7 {fill:#FEFEFE;fill-rule:nonzero}
    .fil11 {fill:#2B2A29;fill-rule:nonzero}
    .fil9 {fill:#57C0CE;fill-rule:nonzero}
    .fil4 {fill:#203C5D;fill-rule:nonzero}
    .fil5 {fill:#203C5D;fill-rule:nonzero}
    .fil8 {fill:url(#id0)}
    .fil6 {fill:url(#id1)}
   ]]>
  </style>
  <linearGradient id="id0" gradientUnits="userSpaceOnUse" x1="2174.48" y1="15748.44" x2="6463.3" y2="15748.44">
   <stop offset="0" style="stop-opacity:1; stop-color:#1DBADE"/>
   <stop offset="1" style="stop-opacity:1; stop-color:#67C2C7"/>
  </linearGradient>
  <linearGradient id="id1" gradientUnits="userSpaceOnUse" xlink:href="#id0" x1="2174.49" y1="5248.44" x2="6463.32" y2="5248.44">
  </linearGradient>
 </defs>
 <g id="Слой_x0020_1">
  <metadata id="CorelCorpID_0Corel-Layer"/>
  <rect class="fil0 str0" x="-0.53" y="7.12" width="14850" height="10500"/>
  <rect class="fil1" x="-0.53" y="10507.12" width="14850" height="10500"/>
  <rect class="fil2" x="14849.48" y="7.12" width="14850" height="10500"/>
  <rect class="fil1" x="14849.48" y="10507.12" width="14850" height="10500"/>
  <rect class="fil3 str0" x="14849.48" y="21007.12" width="14850" height="10500"/>
  <g id="_1967556048">
   <path class="fil4" d="M7006.48 4173.27l749.44 0c179.11,0 337.41,34.17 474.89,102.52 137.47,68.35 244.31,164.58 320.51,288.7 76.2,124.12 114.3,268.67 114.3,433.64 0,164.97 -38.1,309.52 -114.3,433.64 -76.2,124.12 -183.04,220.36 -320.51,288.7 -137.48,68.35 -295.78,102.52 -474.89,102.52l-749.44 0 0 -1649.72zm730.59 1336.27c164.97,0 296.56,-45.95 394.75,-137.87 98.2,-91.91 147.3,-216.42 147.3,-373.54 0,-157.12 -49.1,-281.63 -147.3,-373.54 -98.19,-91.92 -229.78,-137.87 -394.75,-137.87l-348.8 0 0 1022.82 348.8 0zm2717.33 313.45l-2.35 -989.83 -485.49 815.43 -172.05 0 -483.14 -794.22 0 968.62 -358.22 0 0 -1649.72 315.8 0 617.48 1025.18 608.04 -1025.18 313.44 0 4.72 1649.72 -358.23 0zm1538.96 28.28c-168.12,0 -320.13,-36.53 -456.03,-109.59 -135.91,-73.06 -242.75,-174.4 -320.52,-304.02 -77.77,-129.62 -116.66,-276.13 -116.66,-439.53 0,-163.4 38.89,-309.91 116.66,-439.53 77.77,-129.62 184.61,-230.96 320.52,-304.02 135.9,-73.06 288.7,-109.59 458.38,-109.59 142.98,0 272.21,25.14 387.69,75.42 115.48,50.27 212.5,122.55 291.06,216.82l-245.11 226.24c-111.55,-128.83 -249.81,-193.25 -414.78,-193.25 -102.13,0 -193.25,22.39 -273.38,67.17 -80.13,44.78 -142.59,107.23 -187.36,187.36 -44.78,80.13 -67.17,171.26 -67.17,273.38 0,102.13 22.39,193.25 67.17,273.38 44.77,80.13 107.23,142.59 187.36,187.36 80.13,44.78 171.25,67.17 273.38,67.17 164.97,0 303.23,-65.2 414.78,-195.61l245.11 226.25c-78.56,95.84 -175.97,168.9 -292.24,219.18 -116.27,50.27 -245.89,75.41 -388.86,75.41z"/>
   <path class="fil5" d="M7423.6 6755.57l-175.03 -247.25 163.4 -181.16 -95.47 0 -194.01 209.31 0 -209.31 -82.01 0 0 428.41 82.01 0 0 -107.71 68.55 -75.89 133.42 183.6 99.14 0zm334.53 -430.86c-129.13,0 -228.28,93.03 -228.28,216.66 0,123.01 99.15,217.87 228.28,217.87 129.15,0 228.29,-94.86 228.29,-217.87 0,-123.02 -99.14,-216.66 -228.29,-216.66zm1.23 73.45c78.33,0 143.22,62.42 143.22,143.21 0,80.78 -64.89,144.43 -143.22,144.43 -78.95,0 -145.66,-63.65 -145.66,-144.43 0,-80.79 66.09,-143.21 145.66,-143.21zm424.5 -17.14l23.87 -56.92 -39.78 0 -37.33 56.92c-6.74,10.4 -11.63,21.42 -11.63,34.88 0,27.54 18.97,42.85 41,42.85 23.26,0 41.01,-17.75 41.01,-42.85 0,-14.07 -5.51,-26.92 -17.14,-34.88zm556.07 374.55l-94.25 -141.99c55.08,-23.25 85.07,-71.6 85.07,-138.92 0,-94.25 -63.04,-147.5 -173.81,-147.5l-178.71 0 0 428.41 82.01 0 0 -126.07 96.7 0c5.51,0 10.4,0 15.3,-0.62l74.05 126.69 93.64 0zm-279.69 -356.8l96.7 0c61.2,0 95.47,25.7 95.47,78.34 0,53.85 -34.27,80.17 -95.47,80.17l-96.7 0 0 -158.51zm452.64 -71.61l0 428.41 82.01 0 0 -428.41 -82.01 0zm548.74 112.61l33.05 -70.99c-41.01,-26.93 -97.93,-45.29 -154.84,-45.29 -96.09,0 -160.35,47.74 -160.35,122.4 0,152.39 230.12,101.6 230.12,190.95 0,29.99 -27.54,47.12 -73.44,47.12 -45.91,0 -104.05,-23.86 -148.11,-63.03l-34.27 69.15c45.9,41.01 112.61,68.55 181.15,68.55 94.25,0 164.02,-46.51 164.02,-126.69 0.61,-153.61 -229.5,-106.49 -229.5,-193.39 0,-26.32 25.09,-40.39 63.65,-40.39 33.04,0 82.62,14.07 128.52,41.61zm207.22 -112.61l0 428.41 82.01 0 0 -173.81 213.59 0 0 173.81 82.01 0 0 -428.41 -82.01 0 0 182.99 -213.59 0 0 -182.99 -82.01 0zm1029.41 0l-190.34 0 0 428.41 195.85 0c97.92,0 158.51,-44.68 158.51,-118.12 0,-56.91 -34.89,-97.92 -91.19,-108.32 46.51,-11.63 74.66,-47.74 74.66,-94.87 0,-66.09 -56.3,-107.1 -147.49,-107.1zm-4.29 175.04l-104.04 0 0 -104.04 104.04 0c42.23,0 67.94,18.36 67.94,50.79 0,33.66 -25.71,53.25 -67.94,53.25zm0 182.38l-104.04 0 0 -113.84 104.04 0c52.02,0 83.24,21.42 83.24,56.31 0,36.72 -31.22,57.53 -83.24,57.53zm657.06 70.99l88.13 0 -185.44 -428.41 -85.06 0 -187.89 428.41 85.07 0 37.94 -90.58 209.31 0 37.94 90.58zm-217.87 -160.96l75.89 -179.93 74.66 179.93 -150.55 0zm415.31 -267.45l144.43 208.7 -154.22 219.71 96.08 0 108.33 -153 109.55 153 98.53 0 -156.06 -223.38 143.82 -205.03 -97.31 0 -98.53 140.77 -98.54 -140.77 -96.08 0zm510.18 0l0 72.83 133.42 0 0 355.58 82.63 0 0 -355.58 133.41 0 0 -72.83 -349.46 0zm499.77 0l0 428.41 82.01 0 0 -428.41 -82.01 0z"/>
   <path class="fil6" d="M2264.52 4983.2c584.95,71.24 731.37,-598.47 1146.4,-933.59 288.61,-233.04 628.45,-329.28 1039.21,-283.49 320.35,33.42 624.81,172.76 901.18,489.42 19.13,21.92 20.51,45.95 -1.54,64.8 -52.61,44.95 -107.35,87.47 -163.02,128.55 -22.3,16.45 -38.83,2.74 -66.33,-23.14 -433.84,-408.25 -903.63,-490.05 -1378.43,-220.73 -186.78,105.96 -290.18,192.77 -411.34,367.79 -95.8,138.37 -205.35,313.02 -340.84,443.67 -205.93,198.55 -453.23,282.53 -737.76,228.56 -77.84,-14.74 -79.96,-58.52 -76.68,-131.79 3.27,-73.28 0.88,-140.81 89.15,-130.05zm3689.19 -39.67c-141.76,11.15 -194.74,9.22 -325.89,84.73 -139.5,80.32 -251.05,237.03 -344.57,374.36 -94.98,139.48 -177.12,279.37 -291.41,404.97 -75,82.43 -167.14,149.59 -279.89,201.82 -382.61,177.23 -816.12,4.78 -953.22,-222.11 -24.01,-39.74 52.32,-102.53 82.58,-131.21 28.73,-27.24 89.05,-93.56 124.98,-60.78 162.99,148.71 330.2,202.16 504.92,165.57 230.25,-48.22 318.95,-147.92 434.3,-332.96 59.5,-95.48 141.09,-222.57 228.4,-336.86 68.14,-89.21 143.8,-184.81 227.35,-251.95 165.81,-133.21 363.02,-182.63 602.83,-175.24 45.71,1.41 41.71,99.86 42.2,133.75 0.72,49.05 8.09,141.14 -52.58,145.91zm419.58 570.16c-584.96,-71.23 -731.37,598.47 -1146.4,933.59 -288.61,233.05 -628.45,329.29 -1039.21,283.5 -320.36,-33.43 -624.81,-172.76 -901.18,-489.43 -19.13,-21.92 -20.51,-45.95 1.54,-64.79 52.6,-44.95 107.34,-87.47 163.01,-128.56 22.31,-16.45 38.84,-2.73 66.34,23.15 433.83,408.24 903.63,490.04 1378.42,220.72 186.79,-105.96 290.18,-192.77 411.34,-367.79 95.81,-138.37 205.36,-313.01 340.85,-443.67 205.92,-198.55 453.22,-296.99 737.75,-243.03 77.85,14.75 79.97,72.99 76.69,146.27 -3.28,73.27 -0.88,140.8 -89.15,130.04zm-3689.2 39.68c141.76,-11.16 194.75,-9.23 325.9,-84.74 139.5,-80.32 251.04,-237.03 344.57,-374.36 94.98,-139.48 177.12,-279.36 291.41,-404.97 75,-82.42 167.14,-149.59 279.89,-201.82 382.61,-177.23 816.11,-4.78 953.22,222.12 24.01,39.74 -52.32,102.53 -82.58,131.21 -28.74,27.24 -89.05,93.56 -124.98,60.78 -162.99,-148.71 -330.2,-202.16 -504.92,-165.57 -230.26,48.22 -318.96,147.91 -434.3,332.96 -59.51,95.48 -141.09,222.57 -228.4,336.86 -68.15,89.21 -143.8,184.8 -227.36,251.94 -165.8,133.21 -363.01,182.63 -602.82,175.25 -45.72,-1.41 -41.71,-99.86 -42.21,-133.75 -0.71,-49.06 -8.08,-141.14 52.58,-145.91z"/>
  </g>
  <g id="_1967558400">
   <path class="fil7" d="M21856.48 4173.26l749.45 0c179.11,0 337.4,34.18 474.88,102.52 137.48,68.35 244.32,164.58 320.52,288.71 76.2,124.12 114.3,268.66 114.3,433.64 0,164.97 -38.1,309.52 -114.3,433.64 -76.2,124.12 -183.04,220.36 -320.52,288.7 -137.48,68.35 -295.77,102.52 -474.88,102.52l-749.45 0 0 -1649.73zm730.59 1336.28c164.98,0 296.56,-45.95 394.76,-137.87 98.2,-91.91 147.3,-216.43 147.3,-373.54 0,-157.12 -49.1,-281.63 -147.3,-373.55 -98.2,-91.91 -229.78,-137.87 -394.76,-137.87l-348.8 0 0 1022.83 348.8 0zm2717.35 313.45l-2.36 -989.84 -485.5 815.44 -172.04 0 -483.13 -794.22 0 968.62 -358.23 0 0 -1649.73 315.8 0 617.47 1025.19 608.05 -1025.19 313.45 0 4.72 1649.73 -358.23 0zm1538.96 28.28c-168.11,0 -320.12,-36.53 -456.03,-109.59 -135.91,-73.06 -242.74,-174.4 -320.52,-304.02 -77.77,-129.62 -116.66,-276.13 -116.66,-439.53 0,-163.4 38.89,-309.92 116.66,-439.54 77.78,-129.62 184.61,-230.96 320.52,-304.02 135.91,-73.06 288.7,-109.59 458.39,-109.59 142.97,0 272.2,25.14 387.68,75.42 115.48,50.28 212.5,122.55 291.06,216.82l-245.1 226.25c-111.55,-128.84 -249.82,-193.25 -414.79,-193.25 -102.12,0 -193.25,22.38 -273.38,67.16 -80.13,44.78 -142.58,107.23 -187.36,187.36 -44.78,80.13 -67.17,171.26 -67.17,273.39 0,102.12 22.39,193.25 67.17,273.38 44.78,80.13 107.23,142.58 187.36,187.36 80.13,44.78 171.26,67.17 273.38,67.17 164.97,0 303.24,-65.2 414.79,-195.61l245.1 226.25c-78.56,95.84 -175.97,168.9 -292.23,219.17 -116.27,50.28 -245.89,75.42 -388.87,75.42z"/>
   <path class="fil7" d="M22273.61 6755.57l-175.04 -247.26 163.41 -181.15 -95.48 0 -194.01 209.31 0 -209.31 -82.01 0 0 428.41 82.01 0 0 -107.72 68.55 -75.89 133.42 183.61 99.15 0zm334.53 -430.86c-129.14,0 -228.29,93.02 -228.29,216.65 0,123.02 99.15,217.88 228.29,217.88 129.13,0 228.29,-94.86 228.29,-217.88 0,-123.01 -99.16,-216.65 -228.29,-216.65zm1.22 73.44c78.34,0 143.21,62.43 143.21,143.21 0,80.79 -64.87,144.44 -143.21,144.44 -78.95,0 -145.66,-63.65 -145.66,-144.44 0,-80.78 66.1,-143.21 145.66,-143.21zm424.5 -17.14l23.87 -56.91 -39.78 0 -37.33 56.91c-6.74,10.41 -11.63,21.42 -11.63,34.89 0,27.54 18.97,42.84 41,42.84 23.26,0 41.01,-17.75 41.01,-42.84 0,-14.08 -5.51,-26.93 -17.14,-34.89zm556.09 374.56l-94.25 -141.99c55.08,-23.26 85.07,-71.6 85.07,-138.93 0,-94.25 -63.04,-147.49 -173.82,-147.49l-178.71 0 0 428.41 82.01 0 0 -126.08 96.7 0c5.51,0 10.41,0 15.3,-0.61l74.06 126.69 93.64 0zm-279.7 -356.81l96.7 0c61.21,0 95.48,25.71 95.48,78.34 0,53.86 -34.27,80.18 -95.48,80.18l-96.7 0 0 -158.52zm452.65 -71.6l0 428.41 82.01 0 0 -428.41 -82.01 0zm548.74 112.61l33.05 -71c-41,-26.93 -97.92,-45.29 -154.84,-45.29 -96.09,0 -160.35,47.74 -160.35,122.41 0,152.39 230.12,101.59 230.12,190.95 0,29.99 -27.54,47.12 -73.44,47.12 -45.9,0 -104.04,-23.87 -148.11,-63.03l-34.27 69.15c45.9,41.01 112.61,68.55 181.15,68.55 94.26,0 164.03,-46.51 164.03,-126.69 0.61,-153.62 -229.51,-106.49 -229.51,-193.4 0,-26.31 25.09,-40.39 63.65,-40.39 33.05,0 82.62,14.08 128.52,41.62zm207.23 -112.61l0 428.41 82.01 0 0 -173.81 213.6 0 0 173.81 82.01 0 0 -428.41 -82.01 0 0 182.99 -213.6 0 0 -182.99 -82.01 0zm1029.42 0l-190.34 0 0 428.41 195.85 0c97.92,0 158.51,-44.68 158.51,-118.12 0,-56.92 -34.88,-97.92 -91.19,-108.33 46.52,-11.63 74.67,-47.73 74.67,-94.86 0,-66.1 -56.31,-107.1 -147.5,-107.1zm-4.28 175.03l-104.05 0 0 -104.04 104.05 0c42.23,0 67.93,18.36 67.93,50.8 0,33.66 -25.7,53.24 -67.93,53.24zm0 182.39l-104.05 0 0 -113.84 104.05 0c52.02,0 83.23,21.42 83.23,56.31 0,36.72 -31.21,57.53 -83.23,57.53zm657.06 70.99l88.13 0 -185.44 -428.41 -85.07 0 -187.89 428.41 85.07 0 37.94 -90.58 209.31 0 37.95 90.58zm-217.88 -160.96l75.89 -179.94 74.67 179.94 -150.56 0zm415.32 -267.45l144.44 208.69 -154.23 219.72 96.08 0 108.33 -153 109.55 153 98.54 0 -156.07 -223.39 143.83 -205.02 -97.31 0 -98.54 140.76 -98.53 -140.76 -96.09 0zm510.18 0l0 72.83 133.43 0 0 355.58 82.62 0 0 -355.58 133.42 0 0 -72.83 -349.47 0zm499.78 0l0 428.41 82.01 0 0 -428.41 -82.01 0z"/>
   <path class="fil3" d="M17114.52 4983.2c584.95,71.24 731.37,-598.47 1146.4,-933.59 288.61,-233.04 628.45,-329.28 1039.21,-283.49 320.35,33.42 624.81,172.76 901.18,489.42 19.13,21.92 20.51,45.95 -1.54,64.8 -52.61,44.95 -107.35,87.47 -163.02,128.55 -22.3,16.45 -38.83,2.74 -66.33,-23.14 -433.84,-408.25 -903.63,-490.05 -1378.43,-220.73 -186.78,105.96 -290.18,192.77 -411.34,367.79 -95.8,138.37 -205.35,313.02 -340.84,443.67 -205.93,198.55 -453.23,282.53 -737.76,228.56 -77.84,-14.74 -79.96,-58.52 -76.68,-131.79 3.27,-73.28 0.88,-140.81 89.15,-130.05zm3689.19 -39.67c-141.76,11.15 -194.74,9.22 -325.89,84.73 -139.5,80.32 -251.05,237.03 -344.57,374.36 -94.98,139.48 -177.12,279.37 -291.41,404.97 -75,82.43 -167.14,149.59 -279.89,201.82 -382.61,177.23 -816.12,4.78 -953.22,-222.11 -24.01,-39.74 52.32,-102.53 82.58,-131.21 28.73,-27.24 89.05,-93.56 124.98,-60.78 162.99,148.71 330.2,202.16 504.92,165.57 230.25,-48.22 318.95,-147.92 434.3,-332.96 59.5,-95.48 141.09,-222.57 228.4,-336.86 68.14,-89.21 143.8,-184.81 227.35,-251.95 165.81,-133.21 363.02,-182.63 602.83,-175.24 45.71,1.41 41.71,99.86 42.2,133.75 0.72,49.05 8.09,141.14 -52.58,145.91zm419.58 570.16c-584.96,-71.23 -731.37,598.47 -1146.4,933.59 -288.61,233.05 -628.45,329.29 -1039.21,283.5 -320.36,-33.43 -624.81,-172.76 -901.18,-489.43 -19.13,-21.92 -20.51,-45.95 1.54,-64.79 52.6,-44.95 107.34,-87.47 163.01,-128.56 22.31,-16.45 38.84,-2.73 66.34,23.15 433.83,408.24 903.63,490.04 1378.42,220.72 186.79,-105.96 290.18,-192.77 411.34,-367.79 95.81,-138.37 205.36,-313.02 340.85,-443.67 205.92,-198.55 453.22,-296.99 737.75,-243.03 77.85,14.75 79.97,72.99 76.69,146.27 -3.28,73.27 -0.88,140.8 -89.15,130.04zm-3689.2 39.68c141.76,-11.16 194.75,-9.23 325.9,-84.74 139.5,-80.32 251.04,-237.03 344.57,-374.36 94.98,-139.48 177.12,-279.36 291.41,-404.97 75,-82.42 167.13,-149.59 279.89,-201.82 382.61,-177.23 816.11,-4.78 953.22,222.12 24.01,39.74 -52.32,102.53 -82.58,131.21 -28.74,27.24 -89.05,93.56 -124.98,60.78 -162.99,-148.71 -330.2,-202.16 -504.92,-165.57 -230.26,48.22 -318.96,147.91 -434.3,332.96 -59.51,95.47 -141.09,222.57 -228.4,336.86 -68.15,89.21 -143.8,184.8 -227.36,251.94 -165.8,133.21 -363.01,182.63 -602.82,175.25 -45.72,-1.41 -41.71,-99.86 -42.21,-133.75 -0.71,-49.06 -8.08,-141.14 52.58,-145.91z"/>
  </g>
  <g id="_1967558736">
   <path class="fil7" d="M7006.47 14673.26l749.45 0c179.11,0 337.4,34.18 474.88,102.52 137.48,68.35 244.32,164.58 320.52,288.71 76.2,124.12 114.3,268.66 114.3,433.64 0,164.97 -38.1,309.52 -114.3,433.64 -76.2,124.12 -183.04,220.36 -320.52,288.7 -137.48,68.35 -295.77,102.52 -474.88,102.52l-749.45 0 0 -1649.73zm730.59 1336.28c164.98,0 296.56,-45.95 394.76,-137.87 98.2,-91.91 147.3,-216.43 147.3,-373.54 0,-157.12 -49.1,-281.63 -147.3,-373.55 -98.2,-91.91 -229.78,-137.87 -394.76,-137.87l-348.8 0 0 1022.83 348.8 0zm2717.35 313.45l-2.36 -989.84 -485.5 815.44 -172.04 0 -483.13 -794.22 0 968.62 -358.23 0 0 -1649.73 315.8 0 617.47 1025.19 608.05 -1025.19 313.45 0 4.72 1649.73 -358.23 0zm1538.96 28.28c-168.11,0 -320.12,-36.53 -456.03,-109.59 -135.91,-73.06 -242.74,-174.4 -320.52,-304.02 -77.77,-129.62 -116.66,-276.13 -116.66,-439.53 0,-163.4 38.89,-309.92 116.66,-439.54 77.78,-129.62 184.61,-230.96 320.52,-304.02 135.91,-73.06 288.7,-109.59 458.39,-109.59 142.97,0 272.2,25.14 387.68,75.42 115.48,50.28 212.5,122.55 291.06,216.82l-245.1 226.25c-111.55,-128.84 -249.82,-193.25 -414.79,-193.25 -102.12,0 -193.25,22.38 -273.38,67.16 -80.13,44.78 -142.58,107.23 -187.36,187.36 -44.78,80.13 -67.17,171.26 -67.17,273.39 0,102.12 22.39,193.25 67.17,273.38 44.78,80.13 107.23,142.58 187.36,187.36 80.13,44.78 171.26,67.17 273.38,67.17 164.97,0 303.24,-65.2 414.79,-195.61l245.1 226.25c-78.56,95.84 -175.97,168.9 -292.23,219.17 -116.27,50.28 -245.89,75.42 -388.87,75.42z"/>
   <path class="fil7" d="M7423.6 17255.57l-175.04 -247.26 163.41 -181.15 -95.48 0 -194.01 209.31 0 -209.31 -82.01 0 0 428.41 82.01 0 0 -107.72 68.55 -75.89 133.42 183.61 99.15 0zm334.53 -430.86c-129.14,0 -228.29,93.02 -228.29,216.65 0,123.02 99.15,217.88 228.29,217.88 129.13,0 228.29,-94.86 228.29,-217.88 0,-123.01 -99.16,-216.65 -228.29,-216.65zm1.22 73.44c78.34,0 143.21,62.43 143.21,143.21 0,80.79 -64.87,144.44 -143.21,144.44 -78.95,0 -145.66,-63.65 -145.66,-144.44 0,-80.78 66.1,-143.21 145.66,-143.21zm424.5 -17.14l23.87 -56.91 -39.78 0 -37.33 56.91c-6.74,10.41 -11.63,21.42 -11.63,34.89 0,27.54 18.97,42.84 41,42.84 23.26,0 41.01,-17.75 41.01,-42.84 0,-14.08 -5.51,-26.93 -17.14,-34.89zm556.09 374.56l-94.25 -141.99c55.08,-23.26 85.07,-71.6 85.07,-138.93 0,-94.25 -63.04,-147.49 -173.82,-147.49l-178.71 0 0 428.41 82.01 0 0 -126.08 96.7 0c5.51,0 10.41,0 15.3,-0.61l74.06 126.69 93.64 0zm-279.7 -356.81l96.7 0c61.21,0 95.48,25.71 95.48,78.34 0,53.86 -34.27,80.18 -95.48,80.18l-96.7 0 0 -158.52zm452.65 -71.6l0 428.41 82.01 0 0 -428.41 -82.01 0zm548.74 112.61l33.05 -71c-41,-26.93 -97.92,-45.29 -154.84,-45.29 -96.09,0 -160.35,47.74 -160.35,122.41 0,152.39 230.12,101.59 230.12,190.95 0,29.99 -27.54,47.12 -73.44,47.12 -45.9,0 -104.04,-23.87 -148.11,-63.03l-34.27 69.15c45.9,41.01 112.61,68.55 181.15,68.55 94.26,0 164.03,-46.51 164.03,-126.69 0.61,-153.62 -229.51,-106.49 -229.51,-193.4 0,-26.31 25.09,-40.39 63.65,-40.39 33.05,0 82.62,14.08 128.52,41.62zm207.23 -112.61l0 428.41 82.01 0 0 -173.81 213.6 0 0 173.81 82.01 0 0 -428.41 -82.01 0 0 182.99 -213.6 0 0 -182.99 -82.01 0zm1029.42 0l-190.34 0 0 428.41 195.85 0c97.92,0 158.51,-44.68 158.51,-118.12 0,-56.92 -34.88,-97.92 -91.19,-108.33 46.52,-11.63 74.67,-47.73 74.67,-94.86 0,-66.1 -56.31,-107.1 -147.5,-107.1zm-4.28 175.03l-104.05 0 0 -104.04 104.05 0c42.23,0 67.93,18.36 67.93,50.8 0,33.66 -25.7,53.24 -67.93,53.24zm0 182.39l-104.05 0 0 -113.84 104.05 0c52.02,0 83.23,21.42 83.23,56.31 0,36.72 -31.21,57.53 -83.23,57.53zm657.06 70.99l88.13 0 -185.44 -428.41 -85.07 0 -187.89 428.41 85.07 0 37.94 -90.58 209.31 0 37.95 90.58zm-217.88 -160.96l75.89 -179.94 74.67 179.94 -150.56 0zm415.32 -267.45l144.44 208.69 -154.23 219.72 96.08 0 108.33 -153 109.55 153 98.54 0 -156.07 -223.39 143.83 -205.02 -97.31 0 -98.54 140.76 -98.53 -140.76 -96.09 0zm510.18 0l0 72.83 133.43 0 0 355.58 82.62 0 0 -355.58 133.42 0 0 -72.83 -349.47 0zm499.78 0l0 428.41 82.01 0 0 -428.41 -82.01 0z"/>
   <path class="fil8" d="M2264.51 15483.2c584.95,71.24 731.37,-598.47 1146.4,-933.59 288.61,-233.04 628.45,-329.28 1039.21,-283.49 320.35,33.42 624.81,172.76 901.18,489.42 19.13,21.92 20.51,45.95 -1.54,64.8 -52.61,44.95 -107.35,87.47 -163.02,128.55 -22.3,16.45 -38.83,2.74 -66.33,-23.14 -433.84,-408.25 -903.63,-490.05 -1378.43,-220.73 -186.78,105.96 -290.18,192.77 -411.34,367.79 -95.8,138.37 -205.35,313.02 -340.84,443.67 -205.93,198.55 -453.23,282.53 -737.76,228.56 -77.84,-14.74 -79.96,-58.52 -76.68,-131.79 3.27,-73.28 0.88,-140.81 89.15,-130.05zm3689.19 -39.67c-141.76,11.15 -194.74,9.22 -325.89,84.73 -139.5,80.32 -251.05,237.03 -344.57,374.36 -94.98,139.48 -177.12,279.37 -291.41,404.97 -75,82.43 -167.14,149.59 -279.89,201.82 -382.61,177.23 -816.12,4.78 -953.22,-222.11 -24.01,-39.74 52.32,-102.53 82.58,-131.21 28.73,-27.24 89.05,-93.56 124.98,-60.78 162.99,148.71 330.2,202.16 504.92,165.57 230.25,-48.22 318.95,-147.92 434.3,-332.96 59.5,-95.48 141.09,-222.57 228.4,-336.86 68.14,-89.21 143.8,-184.81 227.35,-251.95 165.81,-133.21 363.02,-182.63 602.83,-175.24 45.71,1.41 41.71,99.86 42.2,133.75 0.72,49.05 8.09,141.14 -52.58,145.91zm419.58 570.16c-584.96,-71.23 -731.37,598.47 -1146.4,933.59 -288.61,233.05 -628.45,329.29 -1039.21,283.5 -320.36,-33.43 -624.81,-172.76 -901.18,-489.43 -19.13,-21.92 -20.51,-45.95 1.54,-64.79 52.6,-44.95 107.34,-87.47 163.01,-128.56 22.31,-16.45 38.84,-2.73 66.34,23.15 433.83,408.24 903.63,490.04 1378.42,220.72 186.79,-105.96 290.18,-192.77 411.34,-367.79 95.81,-138.37 205.36,-313.02 340.85,-443.67 205.92,-198.55 453.22,-296.99 737.75,-243.03 77.85,14.75 79.97,72.99 76.69,146.27 -3.28,73.27 -0.88,140.8 -89.15,130.04zm-3689.2 39.68c141.76,-11.16 194.75,-9.23 325.9,-84.74 139.5,-80.32 251.04,-237.03 344.57,-374.36 94.98,-139.48 177.12,-279.36 291.41,-404.97 75,-82.42 167.13,-149.59 279.89,-201.82 382.61,-177.23 816.11,-4.78 953.22,222.12 24.01,39.74 -52.32,102.53 -82.58,131.21 -28.74,27.24 -89.05,93.56 -124.98,60.78 -162.99,-148.71 -330.2,-202.16 -504.92,-165.57 -230.26,48.22 -318.96,147.91 -434.3,332.96 -59.51,95.47 -141.09,222.57 -228.4,336.86 -68.15,89.21 -143.8,184.8 -227.36,251.94 -165.8,133.21 -363.01,182.63 -602.82,175.25 -45.72,-1.41 -41.71,-99.86 -42.21,-133.75 -0.71,-49.06 -8.08,-141.14 52.58,-145.91z"/>
  </g>
  <g id="_1967560368">
   <path class="fil9" d="M21856.48 14673.26l749.45 0c179.11,0 337.4,34.18 474.88,102.52 137.48,68.35 244.32,164.58 320.52,288.71 76.2,124.12 114.3,268.66 114.3,433.64 0,164.97 -38.1,309.52 -114.3,433.64 -76.2,124.12 -183.04,220.36 -320.52,288.7 -137.48,68.35 -295.77,102.52 -474.88,102.52l-749.45 0 0 -1649.73zm730.59 1336.28c164.98,0 296.56,-45.95 394.76,-137.87 98.2,-91.91 147.3,-216.43 147.3,-373.54 0,-157.12 -49.1,-281.63 -147.3,-373.55 -98.2,-91.91 -229.78,-137.87 -394.76,-137.87l-348.8 0 0 1022.83 348.8 0zm2717.35 313.45l-2.36 -989.84 -485.5 815.44 -172.04 0 -483.13 -794.22 0 968.62 -358.23 0 0 -1649.73 315.8 0 617.47 1025.19 608.05 -1025.19 313.45 0 4.72 1649.73 -358.23 0zm1538.96 28.28c-168.11,0 -320.12,-36.53 -456.03,-109.59 -135.91,-73.06 -242.74,-174.4 -320.52,-304.02 -77.77,-129.62 -116.66,-276.13 -116.66,-439.53 0,-163.4 38.89,-309.92 116.66,-439.54 77.78,-129.62 184.61,-230.96 320.52,-304.02 135.91,-73.06 288.7,-109.59 458.39,-109.59 142.97,0 272.2,25.14 387.68,75.42 115.48,50.28 212.5,122.55 291.06,216.82l-245.1 226.25c-111.55,-128.84 -249.82,-193.25 -414.79,-193.25 -102.12,0 -193.25,22.38 -273.38,67.16 -80.13,44.78 -142.58,107.23 -187.36,187.36 -44.78,80.13 -67.17,171.26 -67.17,273.39 0,102.12 22.39,193.25 67.17,273.38 44.78,80.13 107.23,142.58 187.36,187.36 80.13,44.78 171.26,67.17 273.38,67.17 164.97,0 303.24,-65.2 414.79,-195.61l245.1 226.25c-78.56,95.84 -175.97,168.9 -292.23,219.17 -116.27,50.28 -245.89,75.42 -388.87,75.42z"/>
   <path class="fil9" d="M22273.61 17255.57l-175.04 -247.26 163.41 -181.15 -95.48 0 -194.01 209.31 0 -209.31 -82.01 0 0 428.41 82.01 0 0 -107.72 68.55 -75.89 133.42 183.61 99.15 0zm334.53 -430.86c-129.14,0 -228.29,93.02 -228.29,216.65 0,123.02 99.15,217.88 228.29,217.88 129.13,0 228.29,-94.86 228.29,-217.88 0,-123.01 -99.16,-216.65 -228.29,-216.65zm1.22 73.44c78.34,0 143.21,62.43 143.21,143.21 0,80.79 -64.87,144.44 -143.21,144.44 -78.95,0 -145.66,-63.65 -145.66,-144.44 0,-80.78 66.1,-143.21 145.66,-143.21zm424.5 -17.14l23.87 -56.91 -39.78 0 -37.33 56.91c-6.74,10.41 -11.63,21.42 -11.63,34.89 0,27.54 18.97,42.84 41,42.84 23.26,0 41.01,-17.75 41.01,-42.84 0,-14.08 -5.51,-26.93 -17.14,-34.89zm556.09 374.56l-94.25 -141.99c55.08,-23.26 85.07,-71.6 85.07,-138.93 0,-94.25 -63.04,-147.49 -173.82,-147.49l-178.71 0 0 428.41 82.01 0 0 -126.08 96.7 0c5.51,0 10.41,0 15.3,-0.61l74.06 126.69 93.64 0zm-279.7 -356.81l96.7 0c61.21,0 95.48,25.71 95.48,78.34 0,53.86 -34.27,80.18 -95.48,80.18l-96.7 0 0 -158.52zm452.65 -71.6l0 428.41 82.01 0 0 -428.41 -82.01 0zm548.74 112.61l33.05 -71c-41,-26.93 -97.92,-45.29 -154.84,-45.29 -96.09,0 -160.35,47.74 -160.35,122.41 0,152.39 230.12,101.59 230.12,190.95 0,29.99 -27.54,47.12 -73.44,47.12 -45.9,0 -104.04,-23.87 -148.11,-63.03l-34.27 69.15c45.9,41.01 112.61,68.55 181.15,68.55 94.26,0 164.03,-46.51 164.03,-126.69 0.61,-153.62 -229.51,-106.49 -229.51,-193.4 0,-26.31 25.09,-40.39 63.65,-40.39 33.05,0 82.62,14.08 128.52,41.62zm207.23 -112.61l0 428.41 82.01 0 0 -173.81 213.6 0 0 173.81 82.01 0 0 -428.41 -82.01 0 0 182.99 -213.6 0 0 -182.99 -82.01 0zm1029.42 0l-190.34 0 0 428.41 195.85 0c97.92,0 158.51,-44.68 158.51,-118.12 0,-56.92 -34.88,-97.92 -91.19,-108.33 46.52,-11.63 74.67,-47.73 74.67,-94.86 0,-66.1 -56.31,-107.1 -147.5,-107.1zm-4.28 175.03l-104.05 0 0 -104.04 104.05 0c42.23,0 67.93,18.36 67.93,50.8 0,33.66 -25.7,53.24 -67.93,53.24zm0 182.39l-104.05 0 0 -113.84 104.05 0c52.02,0 83.23,21.42 83.23,56.31 0,36.72 -31.21,57.53 -83.23,57.53zm657.06 70.99l88.13 0 -185.44 -428.41 -85.07 0 -187.89 428.41 85.07 0 37.94 -90.58 209.31 0 37.95 90.58zm-217.88 -160.96l75.89 -179.94 74.67 179.94 -150.56 0zm415.32 -267.45l144.44 208.69 -154.23 219.72 96.08 0 108.33 -153 109.55 153 98.54 0 -156.07 -223.39 143.83 -205.02 -97.31 0 -98.54 140.76 -98.53 -140.76 -96.09 0zm510.18 0l0 72.83 133.43 0 0 355.58 82.62 0 0 -355.58 133.42 0 0 -72.83 -349.47 0zm499.78 0l0 428.41 82.01 0 0 -428.41 -82.01 0z"/>
   <path class="fil10" d="M17114.52 15483.2c584.95,71.24 731.37,-598.47 1146.4,-933.59 288.61,-233.04 628.45,-329.28 1039.21,-283.49 320.35,33.42 624.81,172.76 901.18,489.42 19.13,21.92 20.51,45.95 -1.54,64.8 -52.61,44.95 -107.35,87.47 -163.02,128.55 -22.3,16.45 -38.83,2.74 -66.33,-23.14 -433.84,-408.25 -903.63,-490.05 -1378.43,-220.73 -186.78,105.96 -290.18,192.77 -411.34,367.79 -95.8,138.37 -205.35,313.02 -340.84,443.67 -205.93,198.55 -453.23,282.53 -737.76,228.56 -77.84,-14.74 -79.96,-58.52 -76.68,-131.79 3.27,-73.28 0.88,-140.81 89.15,-130.05zm3689.19 -39.67c-141.76,11.15 -194.74,9.22 -325.89,84.73 -139.5,80.32 -251.05,237.03 -344.57,374.36 -94.98,139.48 -177.12,279.37 -291.41,404.97 -75,82.43 -167.14,149.59 -279.89,201.82 -382.61,177.23 -816.12,4.78 -953.22,-222.11 -24.01,-39.74 52.32,-102.53 82.58,-131.21 28.73,-27.24 89.05,-93.56 124.98,-60.78 162.99,148.71 330.2,202.16 504.92,165.57 230.25,-48.22 318.95,-147.92 434.3,-332.96 59.5,-95.48 141.09,-222.57 228.4,-336.86 68.14,-89.21 143.8,-184.81 227.35,-251.95 165.81,-133.21 363.02,-182.63 602.83,-175.24 45.71,1.41 41.71,99.86 42.2,133.75 0.72,49.05 8.09,141.14 -52.58,145.91zm419.58 570.16c-584.96,-71.23 -731.37,598.47 -1146.4,933.59 -288.61,233.05 -628.45,329.29 -1039.21,283.5 -320.36,-33.43 -624.81,-172.76 -901.18,-489.43 -19.13,-21.92 -20.51,-45.95 1.54,-64.79 52.6,-44.95 107.34,-87.47 163.01,-128.56 22.31,-16.45 38.84,-2.73 66.34,23.15 433.83,408.24 903.63,490.04 1378.42,220.72 186.79,-105.96 290.18,-192.77 411.34,-367.79 95.81,-138.37 205.36,-313.02 340.85,-443.67 205.92,-198.55 453.22,-296.99 737.75,-243.03 77.85,14.75 79.97,72.99 76.69,146.27 -3.28,73.27 -0.88,140.8 -89.15,130.04zm-3689.2 39.68c141.76,-11.16 194.75,-9.23 325.9,-84.74 139.5,-80.32 251.04,-237.03 344.57,-374.36 94.98,-139.48 177.12,-279.36 291.41,-404.97 75,-82.42 167.13,-149.59 279.89,-201.82 382.61,-177.23 816.11,-4.78 953.22,222.12 24.01,39.74 -52.32,102.53 -82.58,131.21 -28.74,27.24 -89.05,93.56 -124.98,60.78 -162.99,-148.71 -330.2,-202.16 -504.92,-165.57 -230.26,48.22 -318.96,147.91 -434.3,332.96 -59.51,95.47 -141.09,222.57 -228.4,336.86 -68.15,89.21 -143.8,184.8 -227.36,251.94 -165.8,133.21 -363.01,182.63 -602.82,175.25 -45.72,-1.41 -41.71,-99.86 -42.21,-133.75 -0.71,-49.06 -8.08,-141.14 52.58,-145.91z"/>
  </g>
  <g id="_1967560464">
   <path class="fil11" d="M21856.48 25173.26l749.45 0c179.11,0 337.4,34.18 474.88,102.52 137.48,68.35 244.32,164.58 320.52,288.71 76.2,124.12 114.3,268.66 114.3,433.64 0,164.97 -38.1,309.52 -114.3,433.64 -76.2,124.12 -183.04,220.36 -320.52,288.7 -137.48,68.35 -295.77,102.52 -474.88,102.52l-749.45 0 0 -1649.73zm730.59 1336.28c164.98,0 296.56,-45.95 394.76,-137.87 98.2,-91.91 147.3,-216.43 147.3,-373.54 0,-157.12 -49.1,-281.63 -147.3,-373.55 -98.2,-91.91 -229.78,-137.87 -394.76,-137.87l-348.8 0 0 1022.83 348.8 0zm2717.35 313.45l-2.36 -989.84 -485.5 815.44 -172.04 0 -483.13 -794.22 0 968.62 -358.23 0 0 -1649.73 315.8 0 617.47 1025.19 608.05 -1025.19 313.45 0 4.72 1649.73 -358.23 0zm1538.96 28.28c-168.11,0 -320.12,-36.53 -456.03,-109.59 -135.91,-73.06 -242.74,-174.4 -320.52,-304.02 -77.77,-129.62 -116.66,-276.13 -116.66,-439.53 0,-163.4 38.89,-309.92 116.66,-439.54 77.78,-129.62 184.61,-230.96 320.52,-304.02 135.91,-73.06 288.7,-109.59 458.39,-109.59 142.97,0 272.2,25.14 387.68,75.42 115.48,50.28 212.5,122.55 291.06,216.82l-245.1 226.25c-111.55,-128.84 -249.82,-193.25 -414.79,-193.25 -102.12,0 -193.25,22.38 -273.38,67.16 -80.13,44.78 -142.58,107.23 -187.36,187.36 -44.78,80.13 -67.17,171.26 -67.17,273.39 0,102.12 22.39,193.25 67.17,273.38 44.78,80.13 107.23,142.58 187.36,187.36 80.13,44.78 171.26,67.17 273.38,67.17 164.97,0 303.24,-65.2 414.79,-195.61l245.1 226.25c-78.56,95.84 -175.97,168.9 -292.23,219.17 -116.27,50.28 -245.89,75.42 -388.87,75.42z"/>
   <path class="fil11" d="M22273.61 27755.57l-175.04 -247.26 163.41 -181.15 -95.48 0 -194.01 209.31 0 -209.31 -82.01 0 0 428.41 82.01 0 0 -107.72 68.55 -75.89 133.42 183.61 99.15 0zm334.53 -430.86c-129.14,0 -228.29,93.02 -228.29,216.65 0,123.02 99.15,217.88 228.29,217.88 129.13,0 228.29,-94.86 228.29,-217.88 0,-123.01 -99.16,-216.65 -228.29,-216.65zm1.22 73.44c78.34,0 143.21,62.43 143.21,143.21 0,80.79 -64.87,144.44 -143.21,144.44 -78.95,0 -145.66,-63.65 -145.66,-144.44 0,-80.78 66.1,-143.21 145.66,-143.21zm424.5 -17.14l23.87 -56.91 -39.78 0 -37.33 56.91c-6.74,10.41 -11.63,21.42 -11.63,34.89 0,27.54 18.97,42.84 41,42.84 23.26,0 41.01,-17.75 41.01,-42.84 0,-14.08 -5.51,-26.93 -17.14,-34.89zm556.09 374.56l-94.25 -141.99c55.08,-23.26 85.07,-71.6 85.07,-138.93 0,-94.25 -63.04,-147.49 -173.82,-147.49l-178.71 0 0 428.41 82.01 0 0 -126.08 96.7 0c5.51,0 10.41,0 15.3,-0.61l74.06 126.69 93.64 0zm-279.7 -356.81l96.7 0c61.21,0 95.48,25.71 95.48,78.34 0,53.86 -34.27,80.18 -95.48,80.18l-96.7 0 0 -158.52zm452.65 -71.6l0 428.41 82.01 0 0 -428.41 -82.01 0zm548.74 112.61l33.05 -71c-41,-26.93 -97.92,-45.29 -154.84,-45.29 -96.09,0 -160.35,47.74 -160.35,122.41 0,152.39 230.12,101.59 230.12,190.95 0,29.99 -27.54,47.12 -73.44,47.12 -45.9,0 -104.04,-23.87 -148.11,-63.03l-34.27 69.15c45.9,41.01 112.61,68.55 181.15,68.55 94.26,0 164.03,-46.51 164.03,-126.69 0.61,-153.62 -229.51,-106.49 -229.51,-193.4 0,-26.31 25.09,-40.39 63.65,-40.39 33.05,0 82.62,14.08 128.52,41.62zm207.23 -112.61l0 428.41 82.01 0 0 -173.81 213.6 0 0 173.81 82.01 0 0 -428.41 -82.01 0 0 182.99 -213.6 0 0 -182.99 -82.01 0zm1029.42 0l-190.34 0 0 428.41 195.85 0c97.92,0 158.51,-44.68 158.51,-118.12 0,-56.92 -34.88,-97.92 -91.19,-108.33 46.52,-11.63 74.67,-47.73 74.67,-94.86 0,-66.1 -56.31,-107.1 -147.5,-107.1zm-4.28 175.03l-104.05 0 0 -104.04 104.05 0c42.23,0 67.93,18.36 67.93,50.8 0,33.66 -25.7,53.24 -67.93,53.24zm0 182.39l-104.05 0 0 -113.84 104.05 0c52.02,0 83.23,21.42 83.23,56.31 0,36.72 -31.21,57.53 -83.23,57.53zm657.06 70.99l88.13 0 -185.44 -428.41 -85.07 0 -187.89 428.41 85.07 0 37.94 -90.58 209.31 0 37.95 90.58zm-217.88 -160.96l75.89 -179.94 74.67 179.94 -150.56 0zm415.32 -267.45l144.44 208.69 -154.23 219.72 96.08 0 108.33 -153 109.55 153 98.54 0 -156.07 -223.39 143.83 -205.02 -97.31 0 -98.54 140.76 -98.53 -140.76 -96.09 0zm510.18 0l0 72.83 133.43 0 0 355.58 82.62 0 0 -355.58 133.42 0 0 -72.83 -349.47 0zm499.78 0l0 428.41 82.01 0 0 -428.41 -82.01 0z"/>
   <path class="fil2" d="M17114.52 25983.2c584.95,71.24 731.37,-598.47 1146.4,-933.59 288.61,-233.04 628.45,-329.28 1039.21,-283.49 320.35,33.42 624.81,172.76 901.18,489.42 19.13,21.92 20.51,45.95 -1.54,64.8 -52.61,44.95 -107.35,87.47 -163.02,128.55 -22.3,16.45 -38.83,2.74 -66.33,-23.14 -433.84,-408.25 -903.63,-490.05 -1378.43,-220.73 -186.78,105.96 -290.18,192.77 -411.34,367.79 -95.8,138.37 -205.35,313.02 -340.84,443.67 -205.93,198.55 -453.23,282.53 -737.76,228.56 -77.84,-14.74 -79.96,-58.52 -76.68,-131.79 3.27,-73.28 0.88,-140.81 89.15,-130.05zm3689.19 -39.67c-141.76,11.15 -194.74,9.22 -325.89,84.73 -139.5,80.32 -251.05,237.03 -344.57,374.36 -94.98,139.48 -177.12,279.37 -291.41,404.97 -75,82.43 -167.14,149.59 -279.89,201.82 -382.61,177.23 -816.12,4.78 -953.22,-222.11 -24.01,-39.74 52.32,-102.53 82.58,-131.21 28.73,-27.24 89.05,-93.56 124.98,-60.78 162.99,148.71 330.2,202.16 504.92,165.57 230.25,-48.22 318.95,-147.92 434.3,-332.96 59.5,-95.48 141.09,-222.57 228.4,-336.86 68.14,-89.21 143.8,-184.81 227.35,-251.95 165.81,-133.21 363.02,-182.63 602.83,-175.24 45.71,1.41 41.71,99.86 42.2,133.75 0.72,49.05 8.09,141.14 -52.58,145.91zm419.58 570.16c-584.96,-71.23 -731.37,598.47 -1146.4,933.59 -288.61,233.05 -628.45,329.29 -1039.21,283.5 -320.36,-33.43 -624.81,-172.76 -901.18,-489.43 -19.13,-21.92 -20.51,-45.95 1.54,-64.79 52.6,-44.95 107.34,-87.47 163.01,-128.56 22.31,-16.45 38.84,-2.73 66.34,23.15 433.83,408.24 903.63,490.04 1378.42,220.72 186.79,-105.96 290.18,-192.77 411.34,-367.79 95.81,-138.37 205.36,-313.02 340.85,-443.67 205.92,-198.55 453.22,-296.99 737.75,-243.03 77.85,14.75 79.97,72.99 76.69,146.27 -3.28,73.27 -0.88,140.8 -89.15,130.04zm-3689.2 39.68c141.76,-11.16 194.75,-9.23 325.9,-84.74 139.5,-80.32 251.04,-237.03 344.57,-374.36 94.98,-139.48 177.12,-279.36 291.41,-404.97 75,-82.42 167.13,-149.59 279.89,-201.82 382.61,-177.23 816.11,-4.78 953.22,222.12 24.01,39.74 -52.32,102.53 -82.58,131.21 -28.74,27.24 -89.05,93.56 -124.98,60.78 -162.99,-148.71 -330.2,-202.16 -504.92,-165.57 -230.26,48.22 -318.96,147.91 -434.3,332.96 -59.51,95.47 -141.09,222.57 -228.4,336.86 -68.15,89.21 -143.8,184.8 -227.36,251.94 -165.8,133.21 -363.01,182.63 -602.82,175.25 -45.72,-1.41 -41.71,-99.86 -42.21,-133.75 -0.71,-49.06 -8.08,-141.14 52.58,-145.91z"/>
  </g>
 </g>
</svg>
